<?xml version="1.0" encoding="UTF-8" standalone="no"?>
<svg
   xmlns:dc="http://purl.org/dc/elements/1.1/"
   xmlns:cc="http://creativecommons.org/ns#"
   xmlns:rdf="http://www.w3.org/1999/02/22-rdf-syntax-ns#"
   xmlns:svg="http://www.w3.org/2000/svg"
   xmlns="http://www.w3.org/2000/svg"
   xmlns:sodipodi="http://sodipodi.sourceforge.net/DTD/sodipodi-0.dtd"
   xmlns:inkscape="http://www.inkscape.org/namespaces/inkscape"
   width="499.99997"
   height="499.99997"
   viewBox="0 0 132.29166 132.29166"
   version="1.1"
   id="svg8"
   inkscape:version="1.0 (6e3e5246a0, 2020-05-07)"
   sodipodi:docname="drawing.svg"
   inkscape:export-filename="/home/ryan/Projects/client-sylvia/src/public/images/fdsa.png"
   inkscape:export-xdpi="96"
   inkscape:export-ydpi="96">
  <defs
     id="defs2">
    <mask
       maskUnits="userSpaceOnUse"
       id="mask3917">
      <g
         id="g3927"
         clip-path="none"
         transform="matrix(0,-2.7713625,-3.8338659,0,19.325994,11.449492)"
         style="fill:#000000">
        <g
           inkscape:label="Clip"
           id="g3925"
           style="fill:#000000">
          <g
             id="g3923">
            <rect
               clip-path="none"
               mask="none"
               transform="matrix(0,-0.26083333,-0.36083333,0,4.1313583,5.0408635)"
               style="fill:#ffffff;stroke-width:0.907313"
               y="-23.680208"
               x="-23.680208"
               height="20.902082"
               width="20.902082"
               id="rect3919" />
            <rect
               id="rect3921"
               width="7.1602864"
               height="5.1759114"
               x="5.3247395"
               y="5.9035153"
               style="fill:#000000;stroke-width:0.264583" />
          </g>
        </g>
      </g>
    </mask>
  </defs>
  <sodipodi:namedview
     inkscape:bbox-nodes="true"
     inkscape:snap-bbox="true"
     showguides="false"
     id="base"
     pagecolor="#ffffff"
     bordercolor="#666666"
     borderopacity="1.0"
     inkscape:pageopacity="0.0"
     inkscape:pageshadow="2"
     inkscape:zoom="1.4142136"
     inkscape:cx="216.69357"
     inkscape:cy="237.85905"
     inkscape:document-units="px"
     inkscape:current-layer="layer3"
     showgrid="false"
     units="px"
     objecttolerance="20"
     inkscape:lockguides="false"
     inkscape:window-width="2560"
     inkscape:window-height="1016"
     inkscape:window-x="0"
     inkscape:window-y="27"
     inkscape:window-maximized="1"
     inkscape:snap-global="true"
     inkscape:document-rotation="0"
     inkscape:snap-text-baseline="true">
    <sodipodi:guide
       id="guide944"
       orientation="0.849731,-0.527216"
       inkscape:label="Measure"
       inkscape:color="rgb(167,0,255)"
       position="46.1459,98.7901" />
    <sodipodi:guide
       id="guide946"
       orientation="-0,1"
       inkscape:label=""
       inkscape:color="rgb(167,0,255)"
       position="46.1459,98.7901" />
    <sodipodi:guide
       id="guide948"
       orientation="1,0"
       inkscape:label="Start"
       inkscape:color="rgb(167,0,255)"
       position="46.1459,98.7901" />
    <sodipodi:guide
       id="guide950"
       orientation="-0,1"
       inkscape:label="End"
       inkscape:color="rgb(167,0,255)"
       position="45.2994,97.4256" />
    <sodipodi:guide
       id="guide952"
       orientation="1,0"
       inkscape:label=""
       inkscape:color="rgb(167,0,255)"
       position="45.2994,97.4256" />
    <sodipodi:guide
       id="guide954"
       orientation="-0.527216,-0.849731"
       inkscape:label="Crossing 1"
       inkscape:color="rgb(167,0,255)"
       position="45.5773,97.8735" />
    <sodipodi:guide
       id="guide956"
       orientation="0.849731,-0.527216"
       inkscape:label="Measure"
       inkscape:color="rgb(167,0,255)"
       position="46.1459,98.7901" />
    <sodipodi:guide
       id="guide958"
       orientation="-0,1"
       inkscape:label=""
       inkscape:color="rgb(167,0,255)"
       position="46.1459,98.7901" />
    <sodipodi:guide
       id="guide960"
       orientation="1,0"
       inkscape:label="Start"
       inkscape:color="rgb(167,0,255)"
       position="46.1459,98.7901" />
    <sodipodi:guide
       id="guide962"
       orientation="-0,1"
       inkscape:label="End"
       inkscape:color="rgb(167,0,255)"
       position="45.2994,97.4256" />
    <sodipodi:guide
       id="guide964"
       orientation="1,0"
       inkscape:label=""
       inkscape:color="rgb(167,0,255)"
       position="45.2994,97.4256" />
    <sodipodi:guide
       id="guide966"
       orientation="-0.527216,-0.849731"
       inkscape:label="Crossing 1"
       inkscape:color="rgb(167,0,255)"
       position="45.5773,97.8735" />
  </sodipodi:namedview>
  <metadata
     id="metadata5">
    <rdf:RDF>
      <cc:Work
         rdf:about="">
        <dc:format>image/svg+xml</dc:format>
        <dc:type
           rdf:resource="http://purl.org/dc/dcmitype/StillImage" />
        <dc:title />
      </cc:Work>
    </rdf:RDF>
  </metadata>
  <g
     inkscape:groupmode="layer"
     id="layer1"
     inkscape:label="Background"
     style="display:inline"
     sodipodi:insensitive="true">
    <rect
       style="fill:#da6969;fill-opacity:1;stroke:#ffffff;stroke-width:0;stroke-miterlimit:4;stroke-dasharray:none"
       id="rect62"
       width="132.29166"
       height="132.29166"
       x="1.7949666e-06"
       y="5.0000006e-07" />
  </g>
  <g
     inkscape:groupmode="layer"
     id="layer2"
     inkscape:label="Illustrations"
     style="display:inline">
    <g
       inkscape:groupmode="layer"
       id="layer3"
       inkscape:label="HeartHand"
       style="display:inline">
      <path
         d="m 52.383642,29.221818 c -1.467136,-1.55619 -3.494069,-2.465646 -5.633667,-2.527743 -2.139576,-0.06178 -4.216003,0.72827 -5.7712,2.19674 l -0.35286,0.332881 c -3.056424,-3.236709 -8.162033,-3.386673 -11.403712,-0.334941 -3.241679,3.051722 -3.39188,8.149492 -0.335467,11.386192 l 0.794607,0.840745 c -0.335519,0.775618 -0.228315,1.671375 0.280834,2.34621 0.509138,0.674793 1.341848,1.024908 2.181088,0.916939 -0.142096,0.738417 0.08001,1.500008 0.596838,2.046886 0.516851,0.546854 1.265475,0.812343 2.01201,0.713481 -0.142096,0.738292 0.07992,1.499785 0.596694,2.046564 0.516779,0.546787 1.26528,0.812217 2.011701,0.713352 -0.184885,1.002715 0.296416,2.010528 1.193182,2.498194 0.896766,0.487686 2.005841,0.344714 2.749172,-0.354356 2.653492,-2.501322 2.570272,-2.376445 2.82088,-2.797975 0.776101,0.381284 1.699324,0.305705 2.40282,-0.196831 0.703488,-0.502496 1.07331,-1.350487 0.962531,-2.207021 0.7394,0.138356 1.500466,-0.08517 2.047151,-0.601099 0.546696,-0.515977 0.812887,-1.262133 0.716063,-2.007019 1.01016,0.185228 2.024428,-0.302594 2.508912,-1.206808 0.484505,-0.904209 0.328094,-2.017408 -0.386938,-2.753623 2.94411,-3.095699 2.948198,-7.950153 0.0093,-11.050788 z M 30.809305,43.032507 c -0.543224,-0.576333 -0.517036,-1.482806 0.0586,-2.026873 l 2.417743,-2.279419 c 0.578146,-0.533167 1.478435,-0.502289 2.018529,0.06949 0.540095,0.571557 0.518665,1.470774 -0.04799,2.016061 l -2.417763,2.279427 c -0.576767,0.542569 -1.484592,0.516388 -2.029054,-0.05827 z m 2.608859,2.760362 c -0.543751,-0.576102 -0.517531,-1.483024 0.0586,-2.026853 l 2.417742,-2.27943 c 0.576612,-0.543135 1.485058,-0.516742 2.029054,0.05894 0.544008,0.575766 0.517573,1.482786 -0.05901,2.025953 l -2.417763,2.279879 c -0.577447,0.541371 -1.484717,0.51414 -2.028601,-0.06106 z m 2.608384,2.759918 c -0.54305,-0.576263 -0.516635,-1.482638 0.05901,-2.026405 l 2.417764,-2.279423 c 0.5803,-0.508669 1.459661,-0.46774 1.990074,0.09259 0.530414,0.560321 0.521754,1.43926 -0.01968,1.98907 l -2.417784,2.279405 c -0.576375,0.543627 -1.484973,0.517873 -2.029527,-0.05757 z m 4.637922,2.818872 c -0.372993,0.35148 -0.905466,0.477521 -1.396789,0.330678 -0.491342,-0.146885 -0.866912,-0.544204 -0.985248,-1.042467 -0.118328,-0.498282 0.03831,-1.021704 0.411571,-1.373154 l 2.417764,-2.279878 c 0.578147,-0.533168 1.478433,-0.50229 2.018528,0.06949 0.540105,0.571547 0.518664,1.470771 -0.04809,2.016056 z m 10.99756,-8.410645 c -0.276427,0.261713 -0.645734,0.402657 -1.026462,0.391732 -0.380667,-0.011 -0.741376,-0.173007 -1.002128,-0.450105 l -6.195986,-6.555168 c -0.176308,-0.186523 -0.470613,-0.195005 -0.657414,-0.01917 -0.186759,0.176027 -0.195338,0.469944 -0.01874,0.656404 l 6.197386,6.554609 c 0.352151,0.372418 0.47847,0.903956 0.331535,1.394576 -0.146885,0.490637 -0.544813,0.865687 -1.043817,0.983945 -0.498997,0.118325 -1.023283,-0.03833 -1.375371,-0.410662 l -6.196962,-6.55552 c -0.114012,-0.120672 -0.283903,-0.171375 -0.445556,-0.133132 -0.161694,0.03833 -0.290607,0.15973 -0.338247,0.318695 -0.04789,0.158965 -0.0072,0.331156 0.1073,0.45183 l 6.195057,6.553755 c 0.4892,0.517169 0.523926,1.314426 0.08167,1.872036 -0.442342,0.557592 -1.227619,0.706392 -1.843787,0.34937 0.09649,-0.663209 -0.09608,-1.335869 -0.528859,-1.848053 -0.432847,-0.51219 -1.064515,-0.814874 -1.73548,-0.831538 -0.511455,-0.01342 -0.325457,0.179669 -0.31242,-0.330915 0.01823,-0.626227 -0.21302,-1.234141 -0.643694,-1.689809 -0.430644,-0.455662 -1.025032,-0.721723 -1.65226,-0.73956 -0.511445,-0.01581 -0.327795,0.185754 -0.312409,-0.331013 0.01823,-0.626227 -0.213463,-1.234078 -0.64417,-1.689703 -0.430695,-0.455567 -1.025052,-0.721704 -1.65227,-0.739662 -0.514709,-0.0139 -0.327753,0.189876 -0.31246,-0.330917 0.02492,-0.953706 -0.526522,-1.829013 -1.398314,-2.219432 -0.871803,-0.390391 -1.893189,-0.219444 -2.589817,0.433521 -3.324415,3.133163 -2.17738,2.053339 -2.425199,2.286854 L 29.563863,39.63765 c -2.703717,-2.863523 -2.57059,-7.373297 0.297322,-10.072858 2.867922,-2.69956 7.384623,-2.566642 10.08834,0.296842 l -3.807972,3.590434 c -0.36111,0.345725 -0.573637,0.817918 -0.592823,1.317054 -0.04644,1.906635 2.793909,3.107161 4.529586,1.466997 l 3.470414,-3.270103 c 0.0897,-0.08463 0.209334,-0.13021 0.332542,-0.126664 0.123313,0.0036 0.240198,0.05544 0.32488,0.145258 0.912235,0.965152 6.639556,7.025354 7.514592,7.950589 0.261381,0.276378 0.402138,0.645098 0.391109,1.025079 -0.011,0.379943 -0.172805,0.740027 -0.449716,1.000853 z m 0.07951,-3.356459 -6.859475,-7.257475 c -0.253957,-0.268566 -0.604398,-0.425423 -0.974168,-0.43611 -0.369782,-0.01056 -0.728678,0.125849 -0.997679,0.379464 l -3.470899,3.271042 c -0.368586,0.347403 -0.860629,0.533939 -1.367285,0.518359 -0.506655,-0.01533 -0.986227,-0.232002 -1.332714,-0.601453 -0.174443,-0.184654 -0.268084,-0.43103 -0.260319,-0.684762 0.0072,-0.253711 0.11636,-0.49393 0.301729,-0.667558 l 4.835548,-4.560243 c 2.800447,-2.647046 7.200277,-2.594636 9.93669,0.118372 2.736413,2.713024 2.819932,7.105613 0.188582,9.920364 z"
         id="Shape"
         inkscape:connector-curvature="0"
         style="display:inline;fill:#ffffff;stroke:#ffffff;stroke-width:0.38285209;stroke-miterlimit:4;stroke-dasharray:none;stroke-opacity:1" />
    </g>
    <g
       inkscape:groupmode="layer"
       id="layer5"
       inkscape:label="Outlines">
      <path
         style="display:inline;fill:#ffffff;stroke:#ffffff;stroke-width:2.11666669;stroke-linecap:butt;stroke-linejoin:miter;stroke-miterlimit:4;stroke-dasharray:none;stroke-opacity:1"
         d="M 42.086853,90.227162 90.204816,42.064506 Z"
         id="path60"
         inkscape:connector-curvature="0"
         sodipodi:nodetypes="ccc" />
      <rect
         style="fill:none;fill-opacity:1;stroke:#ffffff;stroke-width:1.96869;stroke-miterlimit:4;stroke-dasharray:none;stroke-opacity:1"
         id="rect984"
         width="109.15631"
         height="109.15631"
         x="11.567678"
         y="11.567678" />
    </g>
    <g
       inkscape:groupmode="layer"
       id="layer4"
       inkscape:label="HandSigns">
      <g
         style="display:inline;stroke-width:9.36796631;stroke-miterlimit:4;stroke-dasharray:none"
         id="g33"
         transform="matrix(0.0559502,0,0,0.0559502,78.167776,80.01392)">
        <g
           id="g883"
           transform="matrix(-0.73186046,0,0,0.73186046,634.69155,72.420965)"
           style="fill:#ffffff;fill-opacity:1;stroke-width:12.80020827;stroke-miterlimit:4;stroke-dasharray:none">
          <g
             style="stroke-width:12.60431081;stroke-miterlimit:4;stroke-dasharray:none"
             transform="matrix(-1.0155421,0,0,1.0155421,-41.721245,8.8981641)"
             id="g942">
            <g
               style="stroke-width:12.60431081;stroke-miterlimit:4;stroke-dasharray:none"
               id="g1017">
              <path
                 transform="matrix(1.3454693,0,0,1.3454693,-886.23789,-37.575747)"
                 sodipodi:nodetypes="sscscccccssscsssssssssssscssccscsssssssssssssssssssscscssssscccscscc"
                 style="display:inline;fill:#ffffff;fill-opacity:1;stroke:#ffffff;stroke-width:9.36796612;stroke-miterlimit:4;stroke-dasharray:none;stroke-opacity:1"
                 d="m -20.222957,413.02657 c -65.910674,0 -88.930813,-62.45732 -88.930813,-128.36722 v -60.26269 c 23.423417,20.87124 60.932983,4.2928 60.932983,-27.3277 v -5.29555 c 21.61677,20.99101 57.8525476,11.75816 66.758318,-17.07368 11.32973,12.48067 28.97158,16.55464 44.52346,10.55041 11.26984,11.54548 26.03165,17.96049 43.999819,17.96049 v 20.07732 C 50.464391,233.44524 5.5162206,262.97546 5.5162206,321.85687 c 0,3.39216 2.75028,6.14244 6.1424404,6.14244 3.39216,0 6.14244,-2.75028 6.14244,-6.14244 0,-53.97284 42.80368,-80.11089 96.213719,-87.2246 3.05202,-0.40694 5.33087,-3.0098 5.33087,-6.08869 v -31.47539 c 0,-3.39216 -2.75028,-6.14244 -6.14244,-6.14244 h -7.61662 c -26.011689,0 -47.173929,-21.16223 -47.173929,-47.17392 0,-5.03296 4.05248,-9.09081 9.09081,-9.09081 h 53.316359 c 34.41148,0 62.19767,27.99633 62.40717,62.40717 l 0.60291,99.03151 c 0.35865,58.91022 -28.47108,117.18168 -91.374359,117.95811 0,0 -58.54985,-1.03124 -112.678548,-1.03124 z M 195.51192,197.06819 c 0.0612,-27.89199 -15.37068,-52.25833 -38.08388,-65.08451 V 63.777277 c 0,-22.2863 -18.13095,-40.41724 -40.41725,-40.41724 -14.22588,0 -26.966839,7.32409 -34.289389,19.01315 -18.56091,-29.60194 -62.87553,-23.14317 -72.8969204,9.48546 -24.7755176,-27.27012 -70.3309076,-9.68355 -70.3309076,27.15188 v 22.179583 c -23.422656,-20.870473 -60.932993,-4.292033 -60.932993,27.32847 v 156.14077 c 0,72.68424 28.797606,138.4005 101.481843,138.4005 22.4438976,0 112.393048,-0.0525 112.393048,-0.0525 81.638709,-0.19744 102.729569,-67.76368 102.858349,-126.48629 z m -256.017587,0 c 0,13.41201 -10.912038,24.32405 -24.324051,24.32405 -13.412783,0 -24.324822,-10.91127 -24.324822,-24.32405 v -68.54961 c 0,-13.41201 10.912039,-24.32405 24.324822,-24.32405 13.412013,0 24.324051,10.91127 24.324051,24.32405 z M 8.0447106,162.79338 c 0,15.51273 -12.62041,28.13237 -28.1331276,28.13237 -15.51196,0 -28.13237,-12.62041 -28.13237,-28.13237 V 79.010527 c 0,-15.51273 12.62041,-28.13237 28.13237,-28.13237 15.5127176,0 28.1331276,12.62041 28.1331276,28.13237 z M 52.375451,128.63836 c -4.02944,4.04249 -6.24839,9.40944 -6.24839,15.11347 0,11.42723 3.24781,22.1074 8.85816,31.17901 -17.79925,4.22216 -34.65563,-9.358 -34.65563,-27.3707 V 63.777277 c 0,-8.16382 3.48645,-15.55993 9.08804,-20.71757 4.99187,-4.59624 11.66347,-7.41479 19.04432,-7.41479 15.51196,0 28.13237,12.6204 28.13237,28.13236 v 58.598863 c -9.60908,0 -16.9086,-1.02425 -24.21887,6.26222 z m 36.50298,-6.26222 V 63.777277 c 0,-7.51143 2.92687,-14.57831 8.23317,-19.89305 17.586559,-17.55893 48.032329,-5.24871 48.032329,19.89305 v 62.668233 c -14.87545,-5.13738 -23.27293,-4.06937 -56.265499,-4.06937 z"
                 id="path22" />
              <path
                 id="path931"
                 d="m -467.63543,205.65327 c -85.03556,1.06848 -153.85523,68.80214 -153.85523,153.85525 v 76.92762 c 0,42.41837 34.50925,76.92762 76.92762,76.92762 h 88.67109 c 31.35763,0 63.12393,-7.89469 91.59676,-23.6925 11.73748,-6.51241 51.64609,-34.00321 114.5212,-34.00321 h 70.61715 c 5.33084,0 9.61595,-4.28752 9.61595,-9.61596 0,-38.07677 -28.37547,-70.81308 -66.08563,-76.15714 -17.17289,-2.5915 -94.92028,1.3871 -110.56904,-2.2874 -15.15474,-3.5567 -27.6086,-14.51648 -27.6086,-15.38792 -15.51775,-15.51655 -19.71751,-37.86522 -15.16436,-50.42726 3.72859,-10.28667 12.85893,-17.74865 23.95454,-19.02276 2.47731,-0.28488 -15.04896,-0.18872 282.017872,-0.18872 21.159905,0 38.329189,-17.09235 38.463812,-38.20057 0.137028,-21.53373 -18.131648,-39.25295 -39.159189,-39.32998 z m 385.617493,-19.41312 c 31.43187,-0.12947 56.920684,25.80532 56.716345,58.26277 -0.201935,31.63769 -25.898165,57.30988 -57.695718,57.30988 H -228.441 c 10.54389,14.69919 13.79649,33.94191 7.94278,51.64969 41.09858,11.5139 70.18924,49.09064 70.18924,92.5896 0,15.912 -12.85533,28.84786 -28.84786,28.84786 -75.36142,0 -86.43179,-1.24406 -112.82037,4.80197 l -25.92821,44.91371 c -21.03971,36.42764 -73.26996,38.92658 -97.4072,3.96177 -26.78404,5.32965 -37.35197,4.01827 -129.25042,4.01827 -53.02236,0 -96.15953,-43.13716 -96.15953,-96.15953 v -76.92762 c 0,-95.67032 77.40394,-173.62846 173.08714,-173.08716 z M -361.72773,301.8128 c -18.15131,0 -10.39124,39.95549 19.92666,47.07249 9.33108,2.19004 87.66264,0.25122 102.04329,1.23926 7.12422,-17.1765 0.92794,-38.00585 -16.37116,-47.98481 -0.84019,-0.48921 7.25043,-0.32694 -105.59879,-0.32694 z m 27.16748,213.18568 15.53697,-26.91265 c -31.65091,12.46828 -37.12719,23.46413 -75.63428,35.29535 18.05876,17.49022 47.63022,13.20271 60.09731,-8.3827 z"
                 sodipodi:nodetypes="csssssssscccssssccccsccsscccsssccssccscccc"
                 style="stroke:#ffffff;stroke-width:12.60431081;stroke-miterlimit:4;stroke-dasharray:none;stroke-opacity:1" />
            </g>
          </g>
        </g>
      </g>
    </g>
    <g
       inkscape:groupmode="layer"
       id="layer6"
       inkscape:label="Letter">
      <text
         xml:space="preserve"
         style="font-style:normal;font-weight:normal;font-size:10.5833px;line-height:1.25;font-family:sans-serif;fill:#000000;fill-opacity:1;stroke:none;stroke-width:0.264583"
         x="124.82223"
         y="92.907066"
         id="text900"><tspan
           sodipodi:role="line"
           id="tspan898"
           x="124.82223"
           y="92.907066"
           style="stroke-width:0.264583" /></text>
    </g>
  </g>
</svg>
